<svg viewBox="0 0 330 200" xmlns="http://www.w3.org/2000/svg"><g><g><g><g><g><line x1="50" y1="177" x2="45" y2="177" style="visibility: inherit;" fill="rgb(0, 0, 0)" stroke="rgb(204, 204, 204)" stroke-width="1px"></line><line x1="50" y1="162.25" x2="45" y2="162.25" style="visibility: inherit;" fill="rgb(0, 0, 0)" stroke="rgb(204, 204, 204)" stroke-width="1px"></line><line x1="50" y1="147.5" x2="45" y2="147.5" style="visibility: inherit;" fill="rgb(0, 0, 0)" stroke="rgb(204, 204, 204)" stroke-width="1px"></line><line x1="50" y1="132.75" x2="45" y2="132.75" style="visibility: inherit;" fill="rgb(0, 0, 0)" stroke="rgb(204, 204, 204)" stroke-width="1px"></line><line x1="50" y1="118.00000000000001" x2="45" y2="118.00000000000001" style="visibility: inherit;" fill="rgb(0, 0, 0)" stroke="rgb(204, 204, 204)" stroke-width="1px"></line><line x1="50" y1="103.25" x2="45" y2="103.25" style="visibility: inherit;" fill="rgb(0, 0, 0)" stroke="rgb(204, 204, 204)" stroke-width="1px"></line><line x1="50" y1="88.50000000000001" x2="45" y2="88.50000000000001" style="visibility: inherit;" fill="rgb(0, 0, 0)" stroke="rgb(204, 204, 204)" stroke-width="1px"></line><line x1="50" y1="73.75000000000001" x2="45" y2="73.75000000000001" style="visibility: inherit;" fill="rgb(0, 0, 0)" stroke="rgb(204, 204, 204)" stroke-width="1px"></line><line x1="50" y1="59.00000000000003" x2="45" y2="59.00000000000003" style="visibility: inherit;" fill="rgb(0, 0, 0)" stroke="rgb(204, 204, 204)" stroke-width="1px"></line><line x1="50" y1="44.25000000000002" x2="45" y2="44.25000000000002" style="visibility: inherit;" fill="rgb(0, 0, 0)" stroke="rgb(204, 204, 204)" stroke-width="1px"></line><line x1="50" y1="29.500000000000014" x2="45" y2="29.500000000000014" style="visibility: inherit;" fill="rgb(0, 0, 0)" stroke="rgb(204, 204, 204)" stroke-width="1px"></line><line x1="50" y1="14.750000000000007" x2="45" y2="14.750000000000007" style="visibility: inherit;" fill="rgb(0, 0, 0)" stroke="rgb(204, 204, 204)" stroke-width="1px"></line><line x1="50" y1="0" x2="45" y2="0" style="visibility: inherit;" fill="rgb(0, 0, 0)" stroke="rgb(204, 204, 204)" stroke-width="1px"></line></g><g transform="translate(40, 0)"><text x="0" y="177" dx="0em" dy="0.3em" style="text-anchor: end; visibility: hidden; font-family: Roboto, sans-serif; font-size: 12px; font-weight: 200;" fill="rgb(33, 33, 33)" stroke="none" stroke-width="1px">-0.1</text><text x="0" y="162.25" dx="0em" dy="0.3em" style="text-anchor: end; visibility: inherit; font-family: Roboto, sans-serif; font-size: 12px; font-weight: 200;" fill="rgb(33, 33, 33)" stroke="none" stroke-width="1px">0</text><text x="0" y="147.5" dx="0em" dy="0.3em" style="text-anchor: end; visibility: hidden; font-family: Roboto, sans-serif; font-size: 12px; font-weight: 200;" fill="rgb(33, 33, 33)" stroke="none" stroke-width="1px">0.1</text><text x="0" y="132.75" dx="0em" dy="0.3em" style="text-anchor: end; visibility: inherit; font-family: Roboto, sans-serif; font-size: 12px; font-weight: 200;" fill="rgb(33, 33, 33)" stroke="none" stroke-width="1px">0.2</text><text x="0" y="118.00000000000001" dx="0em" dy="0.3em" style="text-anchor: end; visibility: hidden; font-family: Roboto, sans-serif; font-size: 12px; font-weight: 200;" fill="rgb(33, 33, 33)" stroke="none" stroke-width="1px">0.3</text><text x="0" y="103.25" dx="0em" dy="0.3em" style="text-anchor: end; visibility: inherit; font-family: Roboto, sans-serif; font-size: 12px; font-weight: 200;" fill="rgb(33, 33, 33)" stroke="none" stroke-width="1px">0.4</text><text x="0" y="88.50000000000001" dx="0em" dy="0.3em" style="text-anchor: end; visibility: hidden; font-family: Roboto, sans-serif; font-size: 12px; font-weight: 200;" fill="rgb(33, 33, 33)" stroke="none" stroke-width="1px">0.5</text><text x="0" y="73.75000000000001" dx="0em" dy="0.3em" style="text-anchor: end; visibility: inherit; font-family: Roboto, sans-serif; font-size: 12px; font-weight: 200;" fill="rgb(33, 33, 33)" stroke="none" stroke-width="1px">0.6</text><text x="0" y="59.00000000000003" dx="0em" dy="0.3em" style="text-anchor: end; visibility: hidden; font-family: Roboto, sans-serif; font-size: 12px; font-weight: 200;" fill="rgb(33, 33, 33)" stroke="none" stroke-width="1px">0.7</text><text x="0" y="44.25000000000002" dx="0em" dy="0.3em" style="text-anchor: end; visibility: inherit; font-family: Roboto, sans-serif; font-size: 12px; font-weight: 200;" fill="rgb(33, 33, 33)" stroke="none" stroke-width="1px">0.8</text><text x="0" y="29.500000000000014" dx="0em" dy="0.3em" style="text-anchor: end; visibility: hidden; font-family: Roboto, sans-serif; font-size: 12px; font-weight: 200;" fill="rgb(33, 33, 33)" stroke="none" stroke-width="1px">0.9</text><text x="0" y="14.750000000000007" dx="0em" dy="0.3em" style="text-anchor: end; visibility: inherit; font-family: Roboto, sans-serif; font-size: 12px; font-weight: 200;" fill="rgb(33, 33, 33)" stroke="none" stroke-width="1px">1</text><text x="0" y="0" dx="0em" dy="0.3em" style="text-anchor: end; visibility: hidden; font-family: Roboto, sans-serif; font-size: 12px; font-weight: 200;" fill="rgb(33, 33, 33)" stroke="none" stroke-width="1px">1.1</text></g><line x1="50" y1="0" x2="50" y2="177" fill="rgb(0, 0, 0)" stroke="rgb(204, 204, 204)" stroke-width="1px"></line></g></g><g transform="translate(50, 0)" clip-path="url(#clip_0)"><clipPath id="clip_0"><rect width="280" height="177"></rect></clipPath><g><g><g><line x1="0" y1="0" x2="0" y2="177" fill="rgb(0, 0, 0)" stroke="rgb(66, 66, 66)" stroke-width="1px" opacity="0.25"></line><line x1="23.333333333333332" y1="0" x2="23.333333333333332" y2="177" fill="rgb(0, 0, 0)" stroke="rgb(66, 66, 66)" stroke-width="1px" opacity="0.25"></line><line x1="46.666666666666664" y1="0" x2="46.666666666666664" y2="177" fill="rgb(0, 0, 0)" stroke="rgb(66, 66, 66)" stroke-width="1px" opacity="0.25"></line><line x1="70" y1="0" x2="70" y2="177" fill="rgb(0, 0, 0)" stroke="rgb(66, 66, 66)" stroke-width="1px" opacity="0.25"></line><line x1="93.33333333333333" y1="0" x2="93.33333333333333" y2="177" fill="rgb(0, 0, 0)" stroke="rgb(66, 66, 66)" stroke-width="1px" opacity="0.25"></line><line x1="116.66666666666667" y1="0" x2="116.66666666666667" y2="177" fill="rgb(0, 0, 0)" stroke="rgb(66, 66, 66)" stroke-width="1px" opacity="0.25"></line><line x1="140" y1="0" x2="140" y2="177" fill="rgb(0, 0, 0)" stroke="rgb(66, 66, 66)" stroke-width="1px" opacity="0.25"></line><line x1="163.33333333333334" y1="0" x2="163.33333333333334" y2="177" fill="rgb(0, 0, 0)" stroke="rgb(66, 66, 66)" stroke-width="1px" opacity="0.25"></line><line x1="186.66666666666666" y1="0" x2="186.66666666666666" y2="177" fill="rgb(0, 0, 0)" stroke="rgb(66, 66, 66)" stroke-width="1px" opacity="0.25"></line><line x1="210" y1="0" x2="210" y2="177" fill="rgb(0, 0, 0)" stroke="rgb(66, 66, 66)" stroke-width="1px" opacity="0.25"></line><line x1="233.33333333333334" y1="0" x2="233.33333333333334" y2="177" fill="rgb(0, 0, 0)" stroke="rgb(66, 66, 66)" stroke-width="1px" opacity="0.25"></line><line x1="256.66666666666663" y1="0" x2="256.66666666666663" y2="177" fill="rgb(0, 0, 0)" stroke="rgb(66, 66, 66)" stroke-width="1px" opacity="0.25"></line><line x1="280" y1="0" x2="280" y2="177" fill="rgb(0, 0, 0)" stroke="rgb(66, 66, 66)" stroke-width="1px" opacity="0.25"></line></g><g><line x1="0" y1="177" x2="280" y2="177" fill="rgb(0, 0, 0)" stroke="rgb(66, 66, 66)" stroke-width="1px" opacity="0.25"></line><line x1="0" y1="162.25" x2="280" y2="162.25" fill="rgb(0, 0, 0)" stroke="rgb(66, 66, 66)" stroke-width="1px" opacity="0.25"></line><line x1="0" y1="147.5" x2="280" y2="147.5" fill="rgb(0, 0, 0)" stroke="rgb(66, 66, 66)" stroke-width="1px" opacity="0.25"></line><line x1="0" y1="132.75" x2="280" y2="132.75" fill="rgb(0, 0, 0)" stroke="rgb(66, 66, 66)" stroke-width="1px" opacity="0.25"></line><line x1="0" y1="118.00000000000001" x2="280" y2="118.00000000000001" fill="rgb(0, 0, 0)" stroke="rgb(66, 66, 66)" stroke-width="1px" opacity="0.25"></line><line x1="0" y1="103.25" x2="280" y2="103.25" fill="rgb(0, 0, 0)" stroke="rgb(66, 66, 66)" stroke-width="1px" opacity="0.25"></line><line x1="0" y1="88.50000000000001" x2="280" y2="88.50000000000001" fill="rgb(0, 0, 0)" stroke="rgb(66, 66, 66)" stroke-width="1px" opacity="0.25"></line><line x1="0" y1="73.75000000000001" x2="280" y2="73.75000000000001" fill="rgb(0, 0, 0)" stroke="rgb(66, 66, 66)" stroke-width="1px" opacity="0.25"></line><line x1="0" y1="59.00000000000003" x2="280" y2="59.00000000000003" fill="rgb(0, 0, 0)" stroke="rgb(66, 66, 66)" stroke-width="1px" opacity="0.25"></line><line x1="0" y1="44.25000000000002" x2="280" y2="44.25000000000002" fill="rgb(0, 0, 0)" stroke="rgb(66, 66, 66)" stroke-width="1px" opacity="0.25"></line><line x1="0" y1="29.500000000000014" x2="280" y2="29.500000000000014" fill="rgb(0, 0, 0)" stroke="rgb(66, 66, 66)" stroke-width="1px" opacity="0.25"></line><line x1="0" y1="14.750000000000007" x2="280" y2="14.750000000000007" fill="rgb(0, 0, 0)" stroke="rgb(66, 66, 66)" stroke-width="1px" opacity="0.25"></line><line x1="0" y1="0" x2="280" y2="0" fill="rgb(0, 0, 0)" stroke="rgb(66, 66, 66)" stroke-width="1px" opacity="0.25"></line></g></g></g><g><g><line x1="0" y1="162.25" x2="280" y2="162.25" fill="rgb(0, 0, 0)" stroke="rgb(153, 153, 153)" stroke-width="1.5px"></line></g></g><g><g><line x1="23.333333333333332" y1="0" x2="23.333333333333332" y2="177" fill="rgb(0, 0, 0)" stroke="rgb(153, 153, 153)" stroke-width="1.5px"></line></g></g><g><g><g><g><g><path stroke="rgb(0, 119, 187)" stroke-width="2px" d="M23.333333333333332,145.16063897311687L28,143.78679750859737L32.666666666666664,116.61320599700724L37.333333333333336,92.8631747017304L42,90.53987726521109L46.666666666666664,60.32732243977844L51.33333333333333,39.29244333282701L56,27.974118425857814L60.66666666666667,21.972784767674636L65.33333333333333,18.892707950223475L70,17.21529477442339L74.66666666666667,16.43000958496036L79.33333333333333,15.974945925122483L84,15.756423826242731L88.66666666666666,15.628485483275611L93.33333333333333,15.581052256225565L98,15.553516169212633L102.66666666666666,15.539831804596634L107.33333333333334,15.529767502703423L112,15.524880429096523L116.66666666666667,15.528538328160394L121.33333333333334,15.514546635266914L126,15.501022964353922L130.66666666666666,15.49426113010652L135.33333333333334,15.494159511926789L140,15.497383605589338L144.66666666666669,15.498995652384613L149.33333333333334,15.496526773059646L154,15.495274750033808L158.66666666666666,15.491387023345887L163.33333333333334,15.489443160004669L168,15.491750526879411L172.66666666666669,15.489624911772058L177.33333333333331,15.49182381939249L182,15.492923273202598L186.66666666666666,15.490211284933878L191.33333333333334,15.48885529079953L196,15.49473149497769L200.66666666666666,15.4943946943654L205.33333333333331,15.4909469955153L210,15.495777347335576L214.66666666666669,15.491638322000398L219.33333333333334,15.489568809332798L224,15.488534052999007L228.66666666666666,15.488016674832103L233.33333333333334,15.48775798574867L238,15.487628641206944L242.66666666666669,15.48756396893607L247.33333333333331,15.487531632800644L252,15.487515464732931" style="fill: none;" fill="none"></path></g><g><path stroke="rgb(187, 187, 187)" stroke-width="2px" d="M23.333333333333332,162.2462293946828L28,162.2461537806818L32.666666666666664,162.197928818839L37.333333333333336,162.0747478071747L42,161.92774988158806L46.666666666666664,161.8726744059922L51.33333333333333,161.58379420564927L56,161.39504796066498L60.66666666666667,161.55680097157722L65.33333333333333,161.72850531592755L70,161.28406565331576L74.66666666666667,160.53585970323806L79.33333333333333,158.10022613612801L84,156.68981508576374L88.66666666666666,148.45096244242222L93.33333333333333,154.4528905838557L98,152.61646947528152L102.66666666666666,131.9031066293645L107.33333333333334,125.84231880609572L112,122.99058517203493L116.66666666666667,114.22627755757289L121.33333333333334,104.5105025837765L126,88.9296873597299L130.66666666666666,79.47778882810061L135.33333333333334,67.88060157818329L140,61.53787762569667L144.66666666666669,70.51455857908878L149.33333333333334,65.6344133858683L154,59.740984470834285L158.66666666666666,56.627628026084324L163.33333333333334,51.67912208688111L168,47.504148406069234L172.66666666666669,45.16319728480384L177.33333333333331,44.28596838104886L182,44.56432903701959L186.66666666666666,43.70859832014835L191.33333333333334,42.006976040421456L196,39.714825273653766L200.66666666666666,39.318575129459035L205.33333333333331,39.38295219120874L210,40.023279164123316L214.66666666666669,39.75695812895281L219.33333333333334,39.302518666756015L224,38.744494200235515L228.66666666666666,38.09455198073682L233.33333333333334,38.23018604529052L238,38.34737718111351L242.66666666666669,38.223004594475405L247.33333333333331,37.78949268908819L252,36.905900608755765" style="fill: none;" fill="none"></path></g><g><path stroke="rgb(238, 51, 119)" stroke-width="2px" d="M23.333333333333332,162.25L28,162.18615195523793L32.666666666666664,161.96401855740365L37.333333333333336,161.19034126459155L42,161.14190557771437L46.666666666666664,154.0112780809369L51.33333333333333,153.37056486080786L56,151.0440851277923L60.66666666666667,152.2867139785953L65.33333333333333,154.57083444117546L70,156.36432449319145L74.66666666666667,155.65255257318302L79.33333333333333,148.66294703028632L84,129.98745056560375L88.66666666666666,115.18315793820636L93.33333333333333,101.98005534866087L98,100.39864893813127L102.66666666666666,95.70757694202614L107.33333333333334,89.39319440938561L112,78.71211605494464L116.66666666666667,71.58309116382826L121.33333333333334,64.47806333193229L126,58.907340004998886L130.66666666666666,57.120920931591684L135.33333333333334,53.30851586985082L140,48.346310448849586L144.66666666666669,45.505210265312556L149.33333333333334,45.13013661502845L154,43.36466374962031L158.66666666666666,41.63674746277193L163.33333333333334,41.569456658343235L168,39.53968113195315L172.66666666666669,37.573511061496205L177.33333333333331,36.812394096124926L182,36.39083998582962L186.66666666666666,36.66541230272757L191.33333333333334,36.32654958760248L196,35.98037458854543L200.66666666666666,35.976957819847414L205.33333333333331,36.10513339538793L210,35.90958513865572L214.66666666666669,35.29596767847575L219.33333333333334,34.79873984071031L224,35.15204864249834L228.66666666666666,34.92992539458579L233.33333333333334,35.15846019115601L238,35.26401502950269L242.66666666666669,35.292092209375305L247.33333333333331,35.52155785526655L252,35.815170699188236" style="fill: none;" fill="none"></path></g><g><path stroke="rgb(0, 153, 136)" stroke-width="2px" d="M23.333333333333332,162.03017857822124L28,161.80358839458012L32.666666666666664,160.9245004549656L37.333333333333336,156.05792660425263L42,139.66119651501293L46.666666666666664,115.2829117957329L51.33333333333333,89.2990915696806L56,67.20893839931382L60.66666666666667,55.76156586855073L65.33333333333333,48.97401233078772L70,46.52104884107333L74.66666666666667,41.06973912787637L79.33333333333333,36.238632193148995L84,34.036569774901345L88.66666666666666,32.72482151634618L93.33333333333333,31.898499639761045L98,31.98794625492475L102.66666666666666,30.94789845017031L107.33333333333334,31.469615070057998L112,30.529092114284158L116.66666666666667,27.759474869709205L121.33333333333334,26.292284733002266L126,25.510080694266144L130.66666666666666,24.520928725803767L135.33333333333334,24.212705744659644L140,24.283718548956585L144.66666666666669,22.74831785247329L149.33333333333334,20.886865944114916L154,20.037335603069202L158.66666666666666,19.67696513134005L163.33333333333334,18.499710491733733L168,19.084061007554777L172.66666666666669,18.512255390843485L177.33333333333331,18.92088691413831L182,18.627883424454527L186.66666666666666,18.162463302453336L191.33333333333334,17.94468152276518L196,18.251338421066926L200.66666666666666,17.711486458161662L205.33333333333331,17.207349985529113L210,16.932010158741946L214.66666666666669,16.84336707733295L219.33333333333334,16.82451944421839L224,16.658502528424616L228.66666666666666,16.530019079325392L233.33333333333334,16.91069816285262L238,16.61900719371385L242.66666666666669,16.3672306953219L247.33333333333331,16.26689108303922L252,16.127876903075684" style="fill: none;" fill="none"></path></g></g></g></g><g opacity="0.2"><g><g><g><path stroke="rgb(0, 119, 187)" stroke-width="2px" d="M23.333333333333332,145.16063897311687L28,143.09987677633762L32.666666666666664,96.23301236331464L37.333333333333336,72.0818973183632L42,88.36178591847421L46.666666666666664,31.05890995264056L51.33333333333333,18.586234211921706L56,16.74421793222428L60.66666666666667,15.994893819093724L65.33333333333333,15.818646907806409L70,15.539519697427762L74.66666666666667,15.645107835531254L79.33333333333333,15.51999336481095L84,15.537928402423866L88.66666666666666,15.500554949045188L93.33333333333333,15.533620476722737L98,15.525980502367027L102.66666666666666,15.526147544384015L107.33333333333334,15.519703239202506L112,15.51999336481095L116.66666666666667,15.532196223735829L121.33333333333334,15.500554949045188L126,15.487499296665199L130.66666666666666,15.487499296665199L135.33333333333334,15.494057893753071L140,15.500607699155815L144.66666666666669,15.500607699155815L149.33333333333334,15.494057893753071L154,15.494022727012647L158.66666666666666,15.487499296665199L163.33333333333334,15.487499296665199L168,15.494057893753071L172.66666666666669,15.487499296665199L177.33333333333331,15.494022727012647L182,15.494022727012647L186.66666666666666,15.487499296665199L191.33333333333334,15.487499296665199L196,15.500607699155815L200.66666666666666,15.494057893753071L205.33333333333331,15.487499296665199L210,15.500607699155815L214.66666666666669,15.487499296665199L219.33333333333334,15.487499296665199L224,15.487499296665199L228.66666666666666,15.487499296665199L233.33333333333334,15.487499296665199L238,15.487499296665199L242.66666666666669,15.487499296665199L247.33333333333331,15.487499296665199L252,15.487499296665199" style="fill: none;" fill="none"></path></g><g><path stroke="rgb(187, 187, 187)" stroke-width="2px" d="M23.333333333333332,162.2462293946828L28,162.2461159736813L32.666666666666664,162.16176009745686L37.333333333333336,161.96696442196844L42,161.78993932635058L46.666666666666664,161.81932003900874L51.33333333333333,161.29942775843665L56,161.20777629571967L60.66666666666667,161.71792213479057L65.33333333333333,161.8998743002303L70,160.84006001381204L74.66666666666667,159.78801908809692L79.33333333333333,155.6651872061193L84,155.27957620471716L88.66666666666666,140.2126126587391L93.33333333333333,160.4546355609782L98,150.78007638826966L102.66666666666666,111.18990181386474L107.33333333333334,119.78155410289764L112,120.13885697722435L116.66666666666667,105.46197830140594L121.33333333333334,94.79473224282268L126,73.34887585043909L130.66666666666666,70.02589142322543L135.33333333333334,56.28341501951219L140,55.195153862237945L144.66666666666669,79.49123939871791L149.33333333333334,60.75426822900775L154,53.847555577754996L158.66666666666666,53.51427158713342L163.33333333333334,46.73061615228655L168,43.3291747272015L172.66666666666669,42.822246164083516L177.33333333333331,43.40873947739604L182,44.84268969297411L186.66666666666666,42.85286760330204L191.33333333333334,40.305353760719335L196,37.422674506902716L200.66666666666666,38.92232498526577L205.33333333333331,39.44732925295832L210,40.66360613703731L214.66666666666669,39.490637093782446L219.33333333333334,38.84807920455936L224,38.18646973371508L228.66666666666666,37.444609761238134L233.33333333333334,38.36582010984423L238,38.464568316936514L242.66666666666669,38.09863200783733L247.33333333333331,37.35598078370097L252,36.022308528423345" style="fill: none;" fill="none"></path></g><g><path stroke="rgb(238, 51, 119)" stroke-width="2px" d="M23.333333333333332,162.25L28,162.15422793285688L32.666666666666664,161.79741850902792L37.333333333333336,160.51337363338098L42,161.09649712126702L46.666666666666664,147.10348269343376L51.33333333333333,152.7398627847433L56,148.7357810176909L60.66666666666667,153.52448881044984L65.33333333333333,156.85049373097718L70,158.15606309007853L74.66666666666667,154.9411281980574L79.33333333333333,141.67504793405533L84,111.31423382461074L88.66666666666666,100.3797688931227L93.33333333333333,88.77735568583014L98,98.81726665794851L102.66666666666666,91.01654073596002L107.33333333333334,83.0788359642029L112,68.03105807304384L116.66666666666667,64.45407307147981L121.33333333333334,57.37303888797763L126,53.33661800622942L130.66666666666666,55.33450207114222L135.33333333333334,49.496111035347L140,43.384105175733595L144.66666666666669,42.6641101241112L149.33333333333334,44.75506296753885L154,41.59919089078905L158.66666666666666,39.908831179142034L163.33333333333334,41.50216585397723L168,37.50990560650828L172.66666666666669,35.60734099149707L177.33333333333331,36.05127713084223L182,35.96928587555888L186.66666666666666,36.93998461961748L191.33333333333334,35.98768687248232L196,35.634199589490926L200.66666666666666,35.973541051149404L205.33333333333331,36.23330897092823L210,35.71403688192371L214.66666666666669,34.68235021829609L219.33333333333334,34.301512002944975L224,35.50535744428638L228.66666666666666,34.70780214667324L233.33333333333334,35.38699498772623L238,35.36956986784938L242.66666666666669,35.32016938924792L247.33333333333331,35.75102350115778L252,36.10878354310992" style="fill: none;" fill="none"></path></g><g><path stroke="rgb(0, 153, 136)" stroke-width="2px" d="M23.333333333333332,162.03017857822124L28,161.69029330275953L32.666666666666664,160.2651845002547L37.333333333333336,151.79967448487878L42,124.28926205635071L46.666666666666664,91.66644847393037L51.33333333333333,63.72126853466036L56,45.291364550590544L60.66666666666667,44.35890963673593L65.33333333333333,42.19971573352817L70,44.07048082351687L74.66666666666667,35.62109118700031L79.33333333333333,31.40870472788814L84,31.834776163101218L88.66666666666666,31.413153320550943L93.33333333333333,31.072202980518366L98,32.07739150524143L102.66666666666666,29.907858580350908L107.33333333333334,31.991329699754747L112,29.588570952415488L116.66666666666667,24.98986026644708L121.33333333333334,24.82509529590608L126,24.727876842021956L130.66666666666666,23.531776875257492L135.33333333333334,23.904482781887054L140,24.35473135113716L144.66666666666669,21.212917178869255L149.33333333333334,19.025414049625418L154,19.18780526518824L158.66666666666666,19.316594660282156L163.33333333333334,17.322455853223822L168,19.668411523103735L172.66666666666669,17.94044977426531L177.33333333333331,19.32951843738558L182,18.334879934787764L186.66666666666666,17.697043180465705L191.33333333333334,17.726899743080146L196,18.557995319366476L200.66666666666666,17.171634495258346L205.33333333333331,16.703213512897506L210,16.656670331954977L214.66666666666669,16.75472399592401L219.33333333333334,16.805671811103828L224,16.492485612630865L228.66666666666666,16.40153563022615L233.33333333333334,17.291377246379867L238,16.327316224575057L242.66666666666669,16.115454196929953L247.33333333333331,16.166551470756538L252,15.988862723112113" style="fill: none;" fill="none"></path></g></g></g></g></g></g><g transform="translate(50, 177)" clip-path="url(#clip_1)"><clipPath id="clip_1"><rect width="280" height="23"></rect></clipPath><g><g><line x1="0" y1="0" x2="0" y2="5" style="visibility: inherit;" fill="rgb(0, 0, 0)" stroke="rgb(204, 204, 204)" stroke-width="1px"></line><line x1="23.333333333333332" y1="0" x2="23.333333333333332" y2="5" style="visibility: inherit;" fill="rgb(0, 0, 0)" stroke="rgb(204, 204, 204)" stroke-width="1px"></line><line x1="46.666666666666664" y1="0" x2="46.666666666666664" y2="5" style="visibility: inherit;" fill="rgb(0, 0, 0)" stroke="rgb(204, 204, 204)" stroke-width="1px"></line><line x1="70" y1="0" x2="70" y2="5" style="visibility: inherit;" fill="rgb(0, 0, 0)" stroke="rgb(204, 204, 204)" stroke-width="1px"></line><line x1="93.33333333333333" y1="0" x2="93.33333333333333" y2="5" style="visibility: inherit;" fill="rgb(0, 0, 0)" stroke="rgb(204, 204, 204)" stroke-width="1px"></line><line x1="116.66666666666667" y1="0" x2="116.66666666666667" y2="5" style="visibility: inherit;" fill="rgb(0, 0, 0)" stroke="rgb(204, 204, 204)" stroke-width="1px"></line><line x1="140" y1="0" x2="140" y2="5" style="visibility: inherit;" fill="rgb(0, 0, 0)" stroke="rgb(204, 204, 204)" stroke-width="1px"></line><line x1="163.33333333333334" y1="0" x2="163.33333333333334" y2="5" style="visibility: inherit;" fill="rgb(0, 0, 0)" stroke="rgb(204, 204, 204)" stroke-width="1px"></line><line x1="186.66666666666666" y1="0" x2="186.66666666666666" y2="5" style="visibility: inherit;" fill="rgb(0, 0, 0)" stroke="rgb(204, 204, 204)" stroke-width="1px"></line><line x1="210" y1="0" x2="210" y2="5" style="visibility: inherit;" fill="rgb(0, 0, 0)" stroke="rgb(204, 204, 204)" stroke-width="1px"></line><line x1="233.33333333333334" y1="0" x2="233.33333333333334" y2="5" style="visibility: inherit;" fill="rgb(0, 0, 0)" stroke="rgb(204, 204, 204)" stroke-width="1px"></line><line x1="256.66666666666663" y1="0" x2="256.66666666666663" y2="5" style="visibility: inherit;" fill="rgb(0, 0, 0)" stroke="rgb(204, 204, 204)" stroke-width="1px"></line><line x1="280" y1="0" x2="280" y2="5" style="visibility: inherit;" fill="rgb(0, 0, 0)" stroke="rgb(204, 204, 204)" stroke-width="1px"></line></g><g transform="translate(0, 8)"><text x="0" y="0" dx="0em" dy="0.95em" style="text-anchor: middle; visibility: hidden; font-family: Roboto, sans-serif; font-size: 12px; font-weight: 200;" fill="rgb(33, 33, 33)" stroke="none" stroke-width="1px">-5</text><text x="23.333333333333332" y="0" dx="0em" dy="0.95em" style="text-anchor: middle; visibility: inherit; font-family: Roboto, sans-serif; font-size: 12px; font-weight: 200;" fill="rgb(33, 33, 33)" stroke="none" stroke-width="1px">0</text><text x="46.666666666666664" y="0" dx="0em" dy="0.95em" style="text-anchor: middle; visibility: inherit; font-family: Roboto, sans-serif; font-size: 12px; font-weight: 200;" fill="rgb(33, 33, 33)" stroke="none" stroke-width="1px">5</text><text x="70" y="0" dx="0em" dy="0.95em" style="text-anchor: middle; visibility: inherit; font-family: Roboto, sans-serif; font-size: 12px; font-weight: 200;" fill="rgb(33, 33, 33)" stroke="none" stroke-width="1px">10</text><text x="93.33333333333333" y="0" dx="0em" dy="0.95em" style="text-anchor: middle; visibility: inherit; font-family: Roboto, sans-serif; font-size: 12px; font-weight: 200;" fill="rgb(33, 33, 33)" stroke="none" stroke-width="1px">15</text><text x="116.66666666666667" y="0" dx="0em" dy="0.95em" style="text-anchor: middle; visibility: inherit; font-family: Roboto, sans-serif; font-size: 12px; font-weight: 200;" fill="rgb(33, 33, 33)" stroke="none" stroke-width="1px">20</text><text x="140" y="0" dx="0em" dy="0.95em" style="text-anchor: middle; visibility: inherit; font-family: Roboto, sans-serif; font-size: 12px; font-weight: 200;" fill="rgb(33, 33, 33)" stroke="none" stroke-width="1px">25</text><text x="163.33333333333334" y="0" dx="0em" dy="0.95em" style="text-anchor: middle; visibility: inherit; font-family: Roboto, sans-serif; font-size: 12px; font-weight: 200;" fill="rgb(33, 33, 33)" stroke="none" stroke-width="1px">30</text><text x="186.66666666666666" y="0" dx="0em" dy="0.95em" style="text-anchor: middle; visibility: inherit; font-family: Roboto, sans-serif; font-size: 12px; font-weight: 200;" fill="rgb(33, 33, 33)" stroke="none" stroke-width="1px">35</text><text x="210" y="0" dx="0em" dy="0.95em" style="text-anchor: middle; visibility: inherit; font-family: Roboto, sans-serif; font-size: 12px; font-weight: 200;" fill="rgb(33, 33, 33)" stroke="none" stroke-width="1px">40</text><text x="233.33333333333334" y="0" dx="0em" dy="0.95em" style="text-anchor: middle; visibility: inherit; font-family: Roboto, sans-serif; font-size: 12px; font-weight: 200;" fill="rgb(33, 33, 33)" stroke="none" stroke-width="1px">45</text><text x="256.66666666666663" y="0" dx="0em" dy="0.95em" style="text-anchor: middle; visibility: inherit; font-family: Roboto, sans-serif; font-size: 12px; font-weight: 200;" fill="rgb(33, 33, 33)" stroke="none" stroke-width="1px">50</text><text x="280" y="0" dx="0em" dy="0.95em" style="text-anchor: middle; visibility: hidden; font-family: Roboto, sans-serif; font-size: 12px; font-weight: 200;" fill="rgb(33, 33, 33)" stroke="none" stroke-width="1px">55</text></g><line x1="0" y1="0" x2="280" y2="0" fill="rgb(0, 0, 0)" stroke="rgb(204, 204, 204)" stroke-width="1px"></line></g></g></g></g></svg>