<svg viewBox="0 0 330 200" xmlns="http://www.w3.org/2000/svg"><g><g><g><g><g><line x1="51.5625" y1="177" x2="46.5625" y2="177" style="visibility: inherit;" fill="rgb(0, 0, 0)" stroke="rgb(204, 204, 204)" stroke-width="1px"></line><line x1="51.5625" y1="160.9090909090909" x2="46.5625" y2="160.9090909090909" style="visibility: inherit;" fill="rgb(0, 0, 0)" stroke="rgb(204, 204, 204)" stroke-width="1px"></line><line x1="51.5625" y1="144.8181818181818" x2="46.5625" y2="144.8181818181818" style="visibility: inherit;" fill="rgb(0, 0, 0)" stroke="rgb(204, 204, 204)" stroke-width="1px"></line><line x1="51.5625" y1="128.72727272727272" x2="46.5625" y2="128.72727272727272" style="visibility: inherit;" fill="rgb(0, 0, 0)" stroke="rgb(204, 204, 204)" stroke-width="1px"></line><line x1="51.5625" y1="112.63636363636364" x2="46.5625" y2="112.63636363636364" style="visibility: inherit;" fill="rgb(0, 0, 0)" stroke="rgb(204, 204, 204)" stroke-width="1px"></line><line x1="51.5625" y1="96.54545454545453" x2="46.5625" y2="96.54545454545453" style="visibility: inherit;" fill="rgb(0, 0, 0)" stroke="rgb(204, 204, 204)" stroke-width="1px"></line><line x1="51.5625" y1="80.45454545454547" x2="46.5625" y2="80.45454545454547" style="visibility: inherit;" fill="rgb(0, 0, 0)" stroke="rgb(204, 204, 204)" stroke-width="1px"></line><line x1="51.5625" y1="64.36363636363639" x2="46.5625" y2="64.36363636363639" style="visibility: inherit;" fill="rgb(0, 0, 0)" stroke="rgb(204, 204, 204)" stroke-width="1px"></line><line x1="51.5625" y1="48.27272727272729" x2="46.5625" y2="48.27272727272729" style="visibility: inherit;" fill="rgb(0, 0, 0)" stroke="rgb(204, 204, 204)" stroke-width="1px"></line><line x1="51.5625" y1="32.181818181818194" x2="46.5625" y2="32.181818181818194" style="visibility: inherit;" fill="rgb(0, 0, 0)" stroke="rgb(204, 204, 204)" stroke-width="1px"></line><line x1="51.5625" y1="16.090909090909097" x2="46.5625" y2="16.090909090909097" style="visibility: inherit;" fill="rgb(0, 0, 0)" stroke="rgb(204, 204, 204)" stroke-width="1px"></line><line x1="51.5625" y1="0" x2="46.5625" y2="0" style="visibility: inherit;" fill="rgb(0, 0, 0)" stroke="rgb(204, 204, 204)" stroke-width="1px"></line></g><g transform="translate(41.5625, 0)"><text x="0" y="177" dx="0em" dy="0.3em" style="text-anchor: end; visibility: hidden; font-family: Roboto, sans-serif; font-size: 12px; font-weight: 200;" fill="rgb(33, 33, 33)" stroke="none" stroke-width="1px">-0.1</text><text x="0" y="160.9090909090909" dx="0em" dy="0.3em" style="text-anchor: end; visibility: inherit; font-family: Roboto, sans-serif; font-size: 12px; font-weight: 200;" fill="rgb(33, 33, 33)" stroke="none" stroke-width="1px">0</text><text x="0" y="144.8181818181818" dx="0em" dy="0.3em" style="text-anchor: end; visibility: hidden; font-family: Roboto, sans-serif; font-size: 12px; font-weight: 200;" fill="rgb(33, 33, 33)" stroke="none" stroke-width="1px">0.1</text><text x="0" y="128.72727272727272" dx="0em" dy="0.3em" style="text-anchor: end; visibility: inherit; font-family: Roboto, sans-serif; font-size: 12px; font-weight: 200;" fill="rgb(33, 33, 33)" stroke="none" stroke-width="1px">0.2</text><text x="0" y="112.63636363636364" dx="0em" dy="0.3em" style="text-anchor: end; visibility: hidden; font-family: Roboto, sans-serif; font-size: 12px; font-weight: 200;" fill="rgb(33, 33, 33)" stroke="none" stroke-width="1px">0.3</text><text x="0" y="96.54545454545453" dx="0em" dy="0.3em" style="text-anchor: end; visibility: inherit; font-family: Roboto, sans-serif; font-size: 12px; font-weight: 200;" fill="rgb(33, 33, 33)" stroke="none" stroke-width="1px">0.4</text><text x="0" y="80.45454545454547" dx="0em" dy="0.3em" style="text-anchor: end; visibility: hidden; font-family: Roboto, sans-serif; font-size: 12px; font-weight: 200;" fill="rgb(33, 33, 33)" stroke="none" stroke-width="1px">0.5</text><text x="0" y="64.36363636363639" dx="0em" dy="0.3em" style="text-anchor: end; visibility: inherit; font-family: Roboto, sans-serif; font-size: 12px; font-weight: 200;" fill="rgb(33, 33, 33)" stroke="none" stroke-width="1px">0.6</text><text x="0" y="48.27272727272729" dx="0em" dy="0.3em" style="text-anchor: end; visibility: hidden; font-family: Roboto, sans-serif; font-size: 12px; font-weight: 200;" fill="rgb(33, 33, 33)" stroke="none" stroke-width="1px">0.7</text><text x="0" y="32.181818181818194" dx="0em" dy="0.3em" style="text-anchor: end; visibility: inherit; font-family: Roboto, sans-serif; font-size: 12px; font-weight: 200;" fill="rgb(33, 33, 33)" stroke="none" stroke-width="1px">0.8</text><text x="0" y="16.090909090909097" dx="0em" dy="0.3em" style="text-anchor: end; visibility: hidden; font-family: Roboto, sans-serif; font-size: 12px; font-weight: 200;" fill="rgb(33, 33, 33)" stroke="none" stroke-width="1px">0.9</text><text x="0" y="0" dx="0em" dy="0.3em" style="text-anchor: end; visibility: hidden; font-family: Roboto, sans-serif; font-size: 12px; font-weight: 200;" fill="rgb(33, 33, 33)" stroke="none" stroke-width="1px">1</text></g><line x1="51.5625" y1="0" x2="51.5625" y2="177" fill="rgb(0, 0, 0)" stroke="rgb(204, 204, 204)" stroke-width="1px"></line></g></g><g transform="translate(51, 0)" clip-path="url(#clip_0)"><clipPath id="clip_0"><rect width="278" height="177"></rect></clipPath><g><g><g><line x1="0" y1="0" x2="0" y2="177" fill="rgb(0, 0, 0)" stroke="rgb(66, 66, 66)" stroke-width="1px" opacity="0.25"></line><line x1="23.203125" y1="0" x2="23.203125" y2="177" fill="rgb(0, 0, 0)" stroke="rgb(66, 66, 66)" stroke-width="1px" opacity="0.25"></line><line x1="46.40625" y1="0" x2="46.40625" y2="177" fill="rgb(0, 0, 0)" stroke="rgb(66, 66, 66)" stroke-width="1px" opacity="0.25"></line><line x1="69.609375" y1="0" x2="69.609375" y2="177" fill="rgb(0, 0, 0)" stroke="rgb(66, 66, 66)" stroke-width="1px" opacity="0.25"></line><line x1="92.8125" y1="0" x2="92.8125" y2="177" fill="rgb(0, 0, 0)" stroke="rgb(66, 66, 66)" stroke-width="1px" opacity="0.25"></line><line x1="116.015625" y1="0" x2="116.015625" y2="177" fill="rgb(0, 0, 0)" stroke="rgb(66, 66, 66)" stroke-width="1px" opacity="0.25"></line><line x1="139.21875" y1="0" x2="139.21875" y2="177" fill="rgb(0, 0, 0)" stroke="rgb(66, 66, 66)" stroke-width="1px" opacity="0.25"></line><line x1="162.421875" y1="0" x2="162.421875" y2="177" fill="rgb(0, 0, 0)" stroke="rgb(66, 66, 66)" stroke-width="1px" opacity="0.25"></line><line x1="185.625" y1="0" x2="185.625" y2="177" fill="rgb(0, 0, 0)" stroke="rgb(66, 66, 66)" stroke-width="1px" opacity="0.25"></line><line x1="208.828125" y1="0" x2="208.828125" y2="177" fill="rgb(0, 0, 0)" stroke="rgb(66, 66, 66)" stroke-width="1px" opacity="0.25"></line><line x1="232.03125" y1="0" x2="232.03125" y2="177" fill="rgb(0, 0, 0)" stroke="rgb(66, 66, 66)" stroke-width="1px" opacity="0.25"></line><line x1="255.234375" y1="0" x2="255.234375" y2="177" fill="rgb(0, 0, 0)" stroke="rgb(66, 66, 66)" stroke-width="1px" opacity="0.25"></line><line x1="278.4375" y1="0" x2="278.4375" y2="177" fill="rgb(0, 0, 0)" stroke="rgb(66, 66, 66)" stroke-width="1px" opacity="0.25"></line></g><g><line x1="0" y1="177" x2="278.4375" y2="177" fill="rgb(0, 0, 0)" stroke="rgb(66, 66, 66)" stroke-width="1px" opacity="0.25"></line><line x1="0" y1="160.9090909090909" x2="278.4375" y2="160.9090909090909" fill="rgb(0, 0, 0)" stroke="rgb(66, 66, 66)" stroke-width="1px" opacity="0.25"></line><line x1="0" y1="144.8181818181818" x2="278.4375" y2="144.8181818181818" fill="rgb(0, 0, 0)" stroke="rgb(66, 66, 66)" stroke-width="1px" opacity="0.25"></line><line x1="0" y1="128.72727272727272" x2="278.4375" y2="128.72727272727272" fill="rgb(0, 0, 0)" stroke="rgb(66, 66, 66)" stroke-width="1px" opacity="0.25"></line><line x1="0" y1="112.63636363636364" x2="278.4375" y2="112.63636363636364" fill="rgb(0, 0, 0)" stroke="rgb(66, 66, 66)" stroke-width="1px" opacity="0.25"></line><line x1="0" y1="96.54545454545453" x2="278.4375" y2="96.54545454545453" fill="rgb(0, 0, 0)" stroke="rgb(66, 66, 66)" stroke-width="1px" opacity="0.25"></line><line x1="0" y1="80.45454545454547" x2="278.4375" y2="80.45454545454547" fill="rgb(0, 0, 0)" stroke="rgb(66, 66, 66)" stroke-width="1px" opacity="0.25"></line><line x1="0" y1="64.36363636363639" x2="278.4375" y2="64.36363636363639" fill="rgb(0, 0, 0)" stroke="rgb(66, 66, 66)" stroke-width="1px" opacity="0.25"></line><line x1="0" y1="48.27272727272729" x2="278.4375" y2="48.27272727272729" fill="rgb(0, 0, 0)" stroke="rgb(66, 66, 66)" stroke-width="1px" opacity="0.25"></line><line x1="0" y1="32.181818181818194" x2="278.4375" y2="32.181818181818194" fill="rgb(0, 0, 0)" stroke="rgb(66, 66, 66)" stroke-width="1px" opacity="0.25"></line><line x1="0" y1="16.090909090909097" x2="278.4375" y2="16.090909090909097" fill="rgb(0, 0, 0)" stroke="rgb(66, 66, 66)" stroke-width="1px" opacity="0.25"></line><line x1="0" y1="0" x2="278.4375" y2="0" fill="rgb(0, 0, 0)" stroke="rgb(66, 66, 66)" stroke-width="1px" opacity="0.25"></line></g></g></g><g><g><line x1="0" y1="160.9090909090909" x2="278.4375" y2="160.9090909090909" fill="rgb(0, 0, 0)" stroke="rgb(153, 153, 153)" stroke-width="1.5px"></line></g></g><g><g><line x1="23.203125" y1="0" x2="23.203125" y2="177" fill="rgb(0, 0, 0)" stroke="rgb(153, 153, 153)" stroke-width="1.5px"></line></g></g><g><g><g><g><g><path stroke="rgb(0, 119, 187)" stroke-width="2px" d="M23.203125,156.2816758707843L27.84375,154.12563838234001L32.484375,133.14038893401428L37.125,116.94640843333171L41.765625,121.99213904145658L46.40625,91.96349703106077L51.04687499999999,76.63931053570482L55.6875,56.197645059184126L60.328125,50.3629735844093L64.96875,41.174739512292895L69.609375,39.34292806161889L74.25,35.87270299104968L78.890625,34.206516907300085L83.53125,29.46392638926206L88.171875,30.009308627610263L92.8125,24.801661079433554L97.453125,22.70261381175261L102.09374999999999,25.819000521574285L106.73437500000001,28.693571277363795L111.375,23.62712215580432L116.015625,23.292243945573958L120.65625,19.1264367352952L125.296875,17.849186410695836L129.9375,16.38840288483112L134.578125,17.413626034990344L139.21875,15.079333256093504L143.85937500000003,15.531212481993899L148.5,14.730610958485602L153.140625,13.616975247105827L157.78125,14.513960034113493L162.421875,12.546511745578684L167.0625,12.849679301135293L171.703125,13.06437139303538L176.34375,11.863404399674375L180.984375,12.651975179813228L185.625,14.043803525538578L190.265625,10.561793845608557L194.90625,10.674499825043691L199.546875,9.609428622026908L204.18749999999997,8.250317968864747L208.828125,7.820040483245807L213.46875000000003,8.50474190028637L218.109375,8.318248772455602L222.75,7.338033075683297L227.390625,7.062301676882155L232.03125,6.647991829547963L236.671875,5.975878248962966L241.3125,5.948654174528597L245.953125,5.644590437274236L250.59375,6.116956832664983" style="fill: none;" fill="none"></path></g><g><path stroke="rgb(187, 187, 187)" stroke-width="2px" d="M23.203125,160.9082682315379L27.84375,160.90825173395717L32.484375,160.89352653962254L37.125,160.85361492961982L41.765625,160.7983284742443L46.40625,160.76914032539713L51.04687499999999,160.6980421476918L55.6875,160.65050435396302L60.328125,160.68296465956146L64.96875,160.75041833188268L69.609375,160.60805304372843L74.25,160.19961578392952L78.890625,159.1282118853585L83.53125,158.4807843096968L88.171875,156.51234617418316L92.8125,158.34682569330766L97.453125,156.5556637011293L102.09374999999999,147.11434282207887L106.73437500000001,143.84784089935744L111.375,142.69373631119421L116.015625,137.58484514917728L120.65625,131.56296076262936L125.296875,121.90436239534456L129.9375,113.9341256872998L134.578125,107.16501501808527L139.21875,105.03705860244824L143.85937500000003,109.92398109055729L148.5,103.33442461392418L153.140625,96.47068180035443L157.78125,92.13493006353907L162.421875,87.68067018623842L167.0625,87.65994070641108L171.703125,83.99640781610593L176.34375,86.34898635136653L180.984375,80.09062707237216L185.625,75.87633449823304L190.265625,73.37575390883325L194.90625,69.90278974825706L199.546875,68.12497076310584L204.18749999999997,67.7149555475855L208.828125,67.38011073571603L213.46875000000003,65.54357892027535L218.109375,64.83764179875509L222.75,64.44543195115372L227.390625,61.8923897435336L232.03125,61.849338862890356L236.671875,60.466798227372394L241.3125,60.561950536152125L245.953125,62.2805111267072L250.59375,61.63405390055308" style="fill: none;" fill="none"></path></g><g><path stroke="rgb(238, 51, 119)" stroke-width="2px" d="M23.203125,160.9090909090909L27.84375,160.88820790488336L32.484375,160.83328898205775L37.125,160.5724376965346L41.765625,160.50732469559415L46.40625,157.44535193436764L51.04687499999999,156.827890816467L55.6875,155.9604457371596L60.328125,156.52610647570256L64.96875,157.5791207853769L69.609375,158.26868763770253L74.25,157.74006170447393L78.890625,153.74107698352924L83.53125,143.2365954407727L88.171875,136.6558446623582L92.8125,126.00646195592591L97.453125,123.15762511331744L102.09374999999999,121.71666179307024L106.73437500000001,119.92630926670262L111.375,109.14437910620074L116.015625,105.0571964914491L120.65625,94.69898116936297L125.296875,90.11571670385396L129.9375,89.88160546622107L134.578125,84.8827355766343L139.21875,78.83979282759721L143.85937500000003,79.083788370472L148.5,75.76396609144297L153.140625,73.83024352282699L157.78125,73.56836828853798L162.421875,70.65593172335434L167.0625,73.97049578896568L171.703125,73.74838249318898L176.34375,68.6661170558988L180.984375,68.9232865924506L185.625,72.43007955910063L190.265625,71.03053958919544L194.90625,66.96800280192728L199.546875,64.08395693806085L204.18749999999997,62.318259327328775L208.828125,59.75151669508835L213.46875000000003,60.44196340477521L218.109375,58.78564135748157L222.75,58.4155287262608L227.390625,57.94160800939664L232.03125,58.10385089725461L236.671875,58.443404724070646L241.3125,57.839030604857456L245.953125,59.4023943667286L250.59375,60.51564426120216" style="fill: none;" fill="none"></path></g><g><path stroke="rgb(0, 153, 136)" stroke-width="2px" d="M23.203125,160.84111244002335L27.84375,160.77406291894889L32.484375,160.3886777156013L37.125,158.09067865453173L41.765625,151.1484684371975L46.40625,138.4510493189617L51.04687499999999,121.0802113274572L55.6875,105.32561736728748L60.328125,94.04807493556308L64.96875,85.36195532549021L69.609375,86.29516725281556L74.25,75.11437018984506L78.890625,69.89075398422682L83.53125,71.1910979859077L88.171875,68.3274615191681L92.8125,66.71451423088897L97.453125,64.62386219116107L102.09374999999999,59.931094252715106L106.73437500000001,62.63334092692196L111.375,57.44789543363695L116.015625,53.95664496944945L120.65625,51.920123238323825L125.296875,53.493188253019675L129.9375,55.33098722798415L134.578125,52.80739033392581L139.21875,49.76230249504193L143.85937500000003,49.889173058304266L148.5,46.917242280406484L153.140625,47.927786185482894L157.78125,47.5352464574504L162.421875,47.260628292998085L167.0625,45.33288934196959L171.703125,45.887590051676405L176.34375,48.665631332831964L180.984375,45.267871957160374L185.625,42.71998882978656L190.265625,41.01374092768404L194.90625,41.26160289924277L199.546875,40.918259018699715L204.18749999999997,40.08660167159582L208.828125,39.79145086476349L213.46875000000003,41.58178025274633L218.109375,40.15445348515673L222.75,39.886504558830644L227.390625,39.23067325124238L232.03125,39.69291109544765L236.671875,38.88298260701878L241.3125,37.598750746098894L245.953125,37.15736816843014L250.59375,36.40354110242575" style="fill: none;" fill="none"></path></g></g></g></g><g opacity="0.2"><g><g><g><path stroke="rgb(0, 119, 187)" stroke-width="2px" d="M23.203125,156.2816758707843L27.84375,153.04761963811788L32.484375,117.40145184776999L37.125,102.77667549523441L41.765625,126.72251148657367L46.40625,62.87325008348986L51.04687499999999,61.554564454338774L55.6875,35.91568009419876L60.328125,44.55109379508281L64.96875,32.00445120984859L69.609375,37.512905489314704L74.25,32.40417236631568L78.890625,32.54073760726237L83.53125,24.721914800730634L88.171875,30.554657578468344L92.8125,19.594172456047776L97.453125,20.603598572991135L102.09374999999999,28.935363455252226L106.73437500000001,31.568131067536118L111.375,18.560682697729643L116.015625,22.957366054708316L120.65625,14.960631511428137L125.296875,16.571936390616692L129.9375,14.927619533105338L134.578125,18.438849124041486L139.21875,12.745040546764026L143.85937500000003,15.98309170116078L148.5,13.930009440942252L153.140625,12.503339539874682L157.78125,15.410944819450378L162.421875,10.579063458876169L167.0625,13.15284685655073L171.703125,13.279063484885473L176.34375,10.662437406453225L180.984375,13.440545959906137L185.625,15.43563187122345L190.265625,7.0797841657291745L194.90625,10.78720580447804L199.546875,8.544357419013977L204.18749999999997,6.891207315705043L208.828125,7.389762997627258L213.46875000000003,9.189443317326639L218.109375,8.131755644624874L222.75,6.35781737891111L227.390625,6.786570278081032L232.03125,6.23368198221381L236.671875,5.303764668377968L241.3125,5.92143010009419L245.953125,5.340526700019836L250.59375,6.58932322805579" style="fill: none;" fill="none"></path></g><g><path stroke="rgb(187, 187, 187)" stroke-width="2px" d="M23.203125,160.9082682315379L27.84375,160.90824348516682L32.484375,160.88248264387155L37.125,160.81869227086744L41.765625,160.74649742232975L46.40625,160.74086430620147L51.04687499999999,160.62805487901312L55.6875,160.6033379492477L60.328125,160.7152981670912L64.96875,160.81774025875018L69.609375,160.4658267841759L74.25,159.79137795638633L78.890625,158.05706956000492L83.53125,157.8334357657216L88.171875,154.54402818259868L92.8125,160.18124922856012L97.453125,154.76452903991395L102.09374999999999,137.6730939745903L106.73437500000001,140.5813514373519L111.375,141.53963392431086L116.015625,132.47595885937864L120.65625,125.5410792475397L125.296875,112.24576633084907L129.9375,105.9638899293813L134.578125,100.3959047523412L139.21875,102.90910225022925L143.85937500000003,114.81090350584552L148.5,96.74486818638715L153.140625,89.60693901235408L157.78125,87.79917833479969L162.421875,83.22641031308609L167.0625,87.63921122659336L171.703125,80.33287492665379L176.34375,88.70156488635324L180.984375,73.8322677937421L185.625,71.66204192421655L190.265625,70.87517331946982L194.90625,66.42982558770615L199.546875,66.34715177796106L204.18749999999997,67.30494033206595L208.828125,67.04526592384687L213.46875000000003,63.70704710483553L218.109375,64.13170467723502L222.75,64.0532221035524L227.390625,59.33934753591365L232.03125,61.8062879822471L236.671875,59.08425759185447L241.3125,60.65710284493188L245.953125,63.99907171726229L250.59375,60.98759667439896" style="fill: none;" fill="none"></path></g><g><path stroke="rgb(238, 51, 119)" stroke-width="2px" d="M23.203125,160.9090909090909L27.84375,160.8777664027796L32.484375,160.79209978993856L37.125,160.34419282170182L41.765625,160.4462812572125L46.40625,154.47906582192942L51.04687499999999,156.2200775285336L55.6875,155.0997775725343L60.328125,157.0895576019856L64.96875,158.63007842647758L69.609375,158.95758108489892L74.25,157.2116938893768L78.890625,149.74306857721373L83.53125,132.73339618336072L88.171875,130.07549554109573L92.8125,115.35740424286237L97.453125,120.3088317405094L102.09374999999999,120.27570946650073L106.73437500000001,118.13596356998792L111.375,98.36246951059863L116.015625,100.97001777453858L120.65625,84.3407707864588L125.296875,85.53245333108036L129.9375,89.64749425649643L134.578125,79.8838659850034L139.21875,72.79685025865382L143.85937500000003,79.32778390971097L148.5,72.4441438371485L153.140625,71.89652096141471L157.78125,73.30649305473676L162.421875,67.74349516088313L167.0625,77.2850598530336L171.703125,73.526269197464L176.34375,63.58385161920029L180.984375,69.1804561289874L185.625,75.93687252564865L190.265625,69.63099961931056L194.90625,62.90546601468868L199.546875,61.199911074204884L204.18749999999997,60.552561716599904L208.828125,57.18477406285027L213.46875000000003,61.132410114461734L218.109375,57.129319310188315L222.75,58.04541609504007L227.390625,57.4676872925325L232.03125,58.26609378511257L236.671875,58.78295855088669L241.3125,57.234656485644265L245.953125,60.9657581285997L250.59375,61.628894155675724" style="fill: none;" fill="none"></path></g><g><path stroke="rgb(0, 153, 136)" stroke-width="2px" d="M23.203125,160.84111244002335L27.84375,160.74053815841168L32.484375,160.0996388130906L37.125,156.07992947609588L41.765625,144.64014635844663L46.40625,126.15042454817079L51.04687499999999,103.98079267956994L55.6875,89.69410617243162L60.328125,82.81458540396258L64.96875,76.6928007927808L69.609375,87.2274678403681L74.25,63.93903250044043L78.890625,64.66841307553379L83.53125,72.49128325418994L88.171875,65.46399983492765L92.8125,65.10161616585474L97.453125,62.53324205225165L102.09374999999999,55.23836211724716L106.73437500000001,65.33557729287583L111.375,52.26245983080431L116.015625,50.46539783477785L120.65625,49.88360247828746L125.296875,55.066252892667606L129.9375,57.168785983865924L134.578125,50.283793590285576L139.21875,46.717214746908724L143.85937500000003,50.016043619676076L148.5,43.94531152465129L153.140625,48.93833008679478L157.78125,47.14270673014903L162.421875,46.98601012880153L167.0625,43.40515039183879L171.703125,46.44229076125407L176.34375,51.44367261366411L180.984375,41.870112581686556L185.625,40.17210570248692L190.265625,39.30749302560634L194.90625,41.50946487079969L199.546875,40.574915138157934L204.18749999999997,39.25494432449343L208.828125,39.496300057931386L213.46875000000003,43.37210964072837L218.109375,38.727126717567465L222.75,39.61855563250455L227.390625,38.57484194365415L232.03125,40.15514893965288L236.671875,38.07305411858994L241.3125,36.314518885179005L245.953125,36.71598559076137L250.59375,35.64971403642136" style="fill: none;" fill="none"></path></g></g></g></g></g></g><g transform="translate(51, 177)" clip-path="url(#clip_1)"><clipPath id="clip_1"><rect width="278" height="23"></rect></clipPath><g><g><line x1="0" y1="0" x2="0" y2="5" style="visibility: inherit;" fill="rgb(0, 0, 0)" stroke="rgb(204, 204, 204)" stroke-width="1px"></line><line x1="23.203125" y1="0" x2="23.203125" y2="5" style="visibility: inherit;" fill="rgb(0, 0, 0)" stroke="rgb(204, 204, 204)" stroke-width="1px"></line><line x1="46.40625" y1="0" x2="46.40625" y2="5" style="visibility: inherit;" fill="rgb(0, 0, 0)" stroke="rgb(204, 204, 204)" stroke-width="1px"></line><line x1="69.609375" y1="0" x2="69.609375" y2="5" style="visibility: inherit;" fill="rgb(0, 0, 0)" stroke="rgb(204, 204, 204)" stroke-width="1px"></line><line x1="92.8125" y1="0" x2="92.8125" y2="5" style="visibility: inherit;" fill="rgb(0, 0, 0)" stroke="rgb(204, 204, 204)" stroke-width="1px"></line><line x1="116.015625" y1="0" x2="116.015625" y2="5" style="visibility: inherit;" fill="rgb(0, 0, 0)" stroke="rgb(204, 204, 204)" stroke-width="1px"></line><line x1="139.21875" y1="0" x2="139.21875" y2="5" style="visibility: inherit;" fill="rgb(0, 0, 0)" stroke="rgb(204, 204, 204)" stroke-width="1px"></line><line x1="162.421875" y1="0" x2="162.421875" y2="5" style="visibility: inherit;" fill="rgb(0, 0, 0)" stroke="rgb(204, 204, 204)" stroke-width="1px"></line><line x1="185.625" y1="0" x2="185.625" y2="5" style="visibility: inherit;" fill="rgb(0, 0, 0)" stroke="rgb(204, 204, 204)" stroke-width="1px"></line><line x1="208.828125" y1="0" x2="208.828125" y2="5" style="visibility: inherit;" fill="rgb(0, 0, 0)" stroke="rgb(204, 204, 204)" stroke-width="1px"></line><line x1="232.03125" y1="0" x2="232.03125" y2="5" style="visibility: inherit;" fill="rgb(0, 0, 0)" stroke="rgb(204, 204, 204)" stroke-width="1px"></line><line x1="255.234375" y1="0" x2="255.234375" y2="5" style="visibility: inherit;" fill="rgb(0, 0, 0)" stroke="rgb(204, 204, 204)" stroke-width="1px"></line><line x1="278.4375" y1="0" x2="278.4375" y2="5" style="visibility: inherit;" fill="rgb(0, 0, 0)" stroke="rgb(204, 204, 204)" stroke-width="1px"></line></g><g transform="translate(0, 8)"><text x="0" y="0" dx="0em" dy="0.95em" style="text-anchor: middle; visibility: hidden; font-family: Roboto, sans-serif; font-size: 12px; font-weight: 200;" fill="rgb(33, 33, 33)" stroke="none" stroke-width="1px">-5</text><text x="23.203125" y="0" dx="0em" dy="0.95em" style="text-anchor: middle; visibility: inherit; font-family: Roboto, sans-serif; font-size: 12px; font-weight: 200;" fill="rgb(33, 33, 33)" stroke="none" stroke-width="1px">0</text><text x="46.40625" y="0" dx="0em" dy="0.95em" style="text-anchor: middle; visibility: inherit; font-family: Roboto, sans-serif; font-size: 12px; font-weight: 200;" fill="rgb(33, 33, 33)" stroke="none" stroke-width="1px">5</text><text x="69.609375" y="0" dx="0em" dy="0.95em" style="text-anchor: middle; visibility: inherit; font-family: Roboto, sans-serif; font-size: 12px; font-weight: 200;" fill="rgb(33, 33, 33)" stroke="none" stroke-width="1px">10</text><text x="92.8125" y="0" dx="0em" dy="0.95em" style="text-anchor: middle; visibility: inherit; font-family: Roboto, sans-serif; font-size: 12px; font-weight: 200;" fill="rgb(33, 33, 33)" stroke="none" stroke-width="1px">15</text><text x="116.015625" y="0" dx="0em" dy="0.95em" style="text-anchor: middle; visibility: inherit; font-family: Roboto, sans-serif; font-size: 12px; font-weight: 200;" fill="rgb(33, 33, 33)" stroke="none" stroke-width="1px">20</text><text x="139.21875" y="0" dx="0em" dy="0.95em" style="text-anchor: middle; visibility: inherit; font-family: Roboto, sans-serif; font-size: 12px; font-weight: 200;" fill="rgb(33, 33, 33)" stroke="none" stroke-width="1px">25</text><text x="162.421875" y="0" dx="0em" dy="0.95em" style="text-anchor: middle; visibility: inherit; font-family: Roboto, sans-serif; font-size: 12px; font-weight: 200;" fill="rgb(33, 33, 33)" stroke="none" stroke-width="1px">30</text><text x="185.625" y="0" dx="0em" dy="0.95em" style="text-anchor: middle; visibility: inherit; font-family: Roboto, sans-serif; font-size: 12px; font-weight: 200;" fill="rgb(33, 33, 33)" stroke="none" stroke-width="1px">35</text><text x="208.828125" y="0" dx="0em" dy="0.95em" style="text-anchor: middle; visibility: inherit; font-family: Roboto, sans-serif; font-size: 12px; font-weight: 200;" fill="rgb(33, 33, 33)" stroke="none" stroke-width="1px">40</text><text x="232.03125" y="0" dx="0em" dy="0.95em" style="text-anchor: middle; visibility: inherit; font-family: Roboto, sans-serif; font-size: 12px; font-weight: 200;" fill="rgb(33, 33, 33)" stroke="none" stroke-width="1px">45</text><text x="255.234375" y="0" dx="0em" dy="0.95em" style="text-anchor: middle; visibility: inherit; font-family: Roboto, sans-serif; font-size: 12px; font-weight: 200;" fill="rgb(33, 33, 33)" stroke="none" stroke-width="1px">50</text><text x="278.4375" y="0" dx="0em" dy="0.95em" style="text-anchor: middle; visibility: hidden; font-family: Roboto, sans-serif; font-size: 12px; font-weight: 200;" fill="rgb(33, 33, 33)" stroke="none" stroke-width="1px">55</text></g><line x1="0" y1="0" x2="278.4375" y2="0" fill="rgb(0, 0, 0)" stroke="rgb(204, 204, 204)" stroke-width="1px"></line></g></g></g></g></svg>