<svg viewBox="0 0 330 200" xmlns="http://www.w3.org/2000/svg"><g><g><g><g><g><line x1="51.5625" y1="177" x2="46.5625" y2="177" style="visibility: inherit;" fill="rgb(0, 0, 0)" stroke="rgb(204, 204, 204)" stroke-width="1px"></line><line x1="51.5625" y1="160.9090909090909" x2="46.5625" y2="160.9090909090909" style="visibility: inherit;" fill="rgb(0, 0, 0)" stroke="rgb(204, 204, 204)" stroke-width="1px"></line><line x1="51.5625" y1="144.8181818181818" x2="46.5625" y2="144.8181818181818" style="visibility: inherit;" fill="rgb(0, 0, 0)" stroke="rgb(204, 204, 204)" stroke-width="1px"></line><line x1="51.5625" y1="128.72727272727272" x2="46.5625" y2="128.72727272727272" style="visibility: inherit;" fill="rgb(0, 0, 0)" stroke="rgb(204, 204, 204)" stroke-width="1px"></line><line x1="51.5625" y1="112.63636363636364" x2="46.5625" y2="112.63636363636364" style="visibility: inherit;" fill="rgb(0, 0, 0)" stroke="rgb(204, 204, 204)" stroke-width="1px"></line><line x1="51.5625" y1="96.54545454545453" x2="46.5625" y2="96.54545454545453" style="visibility: inherit;" fill="rgb(0, 0, 0)" stroke="rgb(204, 204, 204)" stroke-width="1px"></line><line x1="51.5625" y1="80.45454545454547" x2="46.5625" y2="80.45454545454547" style="visibility: inherit;" fill="rgb(0, 0, 0)" stroke="rgb(204, 204, 204)" stroke-width="1px"></line><line x1="51.5625" y1="64.36363636363635" x2="46.5625" y2="64.36363636363635" style="visibility: inherit;" fill="rgb(0, 0, 0)" stroke="rgb(204, 204, 204)" stroke-width="1px"></line><line x1="51.5625" y1="48.272727272727266" x2="46.5625" y2="48.272727272727266" style="visibility: inherit;" fill="rgb(0, 0, 0)" stroke="rgb(204, 204, 204)" stroke-width="1px"></line><line x1="51.5625" y1="32.181818181818194" x2="46.5625" y2="32.181818181818194" style="visibility: inherit;" fill="rgb(0, 0, 0)" stroke="rgb(204, 204, 204)" stroke-width="1px"></line><line x1="51.5625" y1="16.090909090909076" x2="46.5625" y2="16.090909090909076" style="visibility: inherit;" fill="rgb(0, 0, 0)" stroke="rgb(204, 204, 204)" stroke-width="1px"></line><line x1="51.5625" y1="0" x2="46.5625" y2="0" style="visibility: inherit;" fill="rgb(0, 0, 0)" stroke="rgb(204, 204, 204)" stroke-width="1px"></line></g><g transform="translate(41.5625, 0)"><text x="0" y="177" dx="0em" dy="0.3em" style="text-anchor: end; visibility: hidden; font-family: Roboto, sans-serif; font-size: 12px; font-weight: 200;" fill="rgb(33, 33, 33)" stroke="none" stroke-width="1px">0</text><text x="0" y="160.9090909090909" dx="0em" dy="0.3em" style="text-anchor: end; visibility: inherit; font-family: Roboto, sans-serif; font-size: 12px; font-weight: 200;" fill="rgb(33, 33, 33)" stroke="none" stroke-width="1px">0.01</text><text x="0" y="144.8181818181818" dx="0em" dy="0.3em" style="text-anchor: end; visibility: hidden; font-family: Roboto, sans-serif; font-size: 12px; font-weight: 200;" fill="rgb(33, 33, 33)" stroke="none" stroke-width="1px">0.02</text><text x="0" y="128.72727272727272" dx="0em" dy="0.3em" style="text-anchor: end; visibility: inherit; font-family: Roboto, sans-serif; font-size: 12px; font-weight: 200;" fill="rgb(33, 33, 33)" stroke="none" stroke-width="1px">0.03</text><text x="0" y="112.63636363636364" dx="0em" dy="0.3em" style="text-anchor: end; visibility: hidden; font-family: Roboto, sans-serif; font-size: 12px; font-weight: 200;" fill="rgb(33, 33, 33)" stroke="none" stroke-width="1px">0.04</text><text x="0" y="96.54545454545453" dx="0em" dy="0.3em" style="text-anchor: end; visibility: inherit; font-family: Roboto, sans-serif; font-size: 12px; font-weight: 200;" fill="rgb(33, 33, 33)" stroke="none" stroke-width="1px">0.05</text><text x="0" y="80.45454545454547" dx="0em" dy="0.3em" style="text-anchor: end; visibility: hidden; font-family: Roboto, sans-serif; font-size: 12px; font-weight: 200;" fill="rgb(33, 33, 33)" stroke="none" stroke-width="1px">0.06</text><text x="0" y="64.36363636363635" dx="0em" dy="0.3em" style="text-anchor: end; visibility: inherit; font-family: Roboto, sans-serif; font-size: 12px; font-weight: 200;" fill="rgb(33, 33, 33)" stroke="none" stroke-width="1px">0.07</text><text x="0" y="48.272727272727266" dx="0em" dy="0.3em" style="text-anchor: end; visibility: hidden; font-family: Roboto, sans-serif; font-size: 12px; font-weight: 200;" fill="rgb(33, 33, 33)" stroke="none" stroke-width="1px">0.08</text><text x="0" y="32.181818181818194" dx="0em" dy="0.3em" style="text-anchor: end; visibility: inherit; font-family: Roboto, sans-serif; font-size: 12px; font-weight: 200;" fill="rgb(33, 33, 33)" stroke="none" stroke-width="1px">0.09</text><text x="0" y="16.090909090909076" dx="0em" dy="0.3em" style="text-anchor: end; visibility: hidden; font-family: Roboto, sans-serif; font-size: 12px; font-weight: 200;" fill="rgb(33, 33, 33)" stroke="none" stroke-width="1px">0.1</text><text x="0" y="0" dx="0em" dy="0.3em" style="text-anchor: end; visibility: hidden; font-family: Roboto, sans-serif; font-size: 12px; font-weight: 200;" fill="rgb(33, 33, 33)" stroke="none" stroke-width="1px">0.11</text></g><line x1="51.5625" y1="0" x2="51.5625" y2="177" fill="rgb(0, 0, 0)" stroke="rgb(204, 204, 204)" stroke-width="1px"></line></g></g><g transform="translate(51, 0)" clip-path="url(#clip_0)"><clipPath id="clip_0"><rect width="278" height="177"></rect></clipPath><g><g><g><line x1="0" y1="0" x2="0" y2="177" fill="rgb(0, 0, 0)" stroke="rgb(66, 66, 66)" stroke-width="1px" opacity="0.25"></line><line x1="23.203125" y1="0" x2="23.203125" y2="177" fill="rgb(0, 0, 0)" stroke="rgb(66, 66, 66)" stroke-width="1px" opacity="0.25"></line><line x1="46.40625" y1="0" x2="46.40625" y2="177" fill="rgb(0, 0, 0)" stroke="rgb(66, 66, 66)" stroke-width="1px" opacity="0.25"></line><line x1="69.609375" y1="0" x2="69.609375" y2="177" fill="rgb(0, 0, 0)" stroke="rgb(66, 66, 66)" stroke-width="1px" opacity="0.25"></line><line x1="92.8125" y1="0" x2="92.8125" y2="177" fill="rgb(0, 0, 0)" stroke="rgb(66, 66, 66)" stroke-width="1px" opacity="0.25"></line><line x1="116.015625" y1="0" x2="116.015625" y2="177" fill="rgb(0, 0, 0)" stroke="rgb(66, 66, 66)" stroke-width="1px" opacity="0.25"></line><line x1="139.21875" y1="0" x2="139.21875" y2="177" fill="rgb(0, 0, 0)" stroke="rgb(66, 66, 66)" stroke-width="1px" opacity="0.25"></line><line x1="162.421875" y1="0" x2="162.421875" y2="177" fill="rgb(0, 0, 0)" stroke="rgb(66, 66, 66)" stroke-width="1px" opacity="0.25"></line><line x1="185.625" y1="0" x2="185.625" y2="177" fill="rgb(0, 0, 0)" stroke="rgb(66, 66, 66)" stroke-width="1px" opacity="0.25"></line><line x1="208.828125" y1="0" x2="208.828125" y2="177" fill="rgb(0, 0, 0)" stroke="rgb(66, 66, 66)" stroke-width="1px" opacity="0.25"></line><line x1="232.03125" y1="0" x2="232.03125" y2="177" fill="rgb(0, 0, 0)" stroke="rgb(66, 66, 66)" stroke-width="1px" opacity="0.25"></line><line x1="255.234375" y1="0" x2="255.234375" y2="177" fill="rgb(0, 0, 0)" stroke="rgb(66, 66, 66)" stroke-width="1px" opacity="0.25"></line><line x1="278.4375" y1="0" x2="278.4375" y2="177" fill="rgb(0, 0, 0)" stroke="rgb(66, 66, 66)" stroke-width="1px" opacity="0.25"></line></g><g><line x1="0" y1="177" x2="278.4375" y2="177" fill="rgb(0, 0, 0)" stroke="rgb(66, 66, 66)" stroke-width="1px" opacity="0.25"></line><line x1="0" y1="160.9090909090909" x2="278.4375" y2="160.9090909090909" fill="rgb(0, 0, 0)" stroke="rgb(66, 66, 66)" stroke-width="1px" opacity="0.25"></line><line x1="0" y1="144.8181818181818" x2="278.4375" y2="144.8181818181818" fill="rgb(0, 0, 0)" stroke="rgb(66, 66, 66)" stroke-width="1px" opacity="0.25"></line><line x1="0" y1="128.72727272727272" x2="278.4375" y2="128.72727272727272" fill="rgb(0, 0, 0)" stroke="rgb(66, 66, 66)" stroke-width="1px" opacity="0.25"></line><line x1="0" y1="112.63636363636364" x2="278.4375" y2="112.63636363636364" fill="rgb(0, 0, 0)" stroke="rgb(66, 66, 66)" stroke-width="1px" opacity="0.25"></line><line x1="0" y1="96.54545454545453" x2="278.4375" y2="96.54545454545453" fill="rgb(0, 0, 0)" stroke="rgb(66, 66, 66)" stroke-width="1px" opacity="0.25"></line><line x1="0" y1="80.45454545454547" x2="278.4375" y2="80.45454545454547" fill="rgb(0, 0, 0)" stroke="rgb(66, 66, 66)" stroke-width="1px" opacity="0.25"></line><line x1="0" y1="64.36363636363635" x2="278.4375" y2="64.36363636363635" fill="rgb(0, 0, 0)" stroke="rgb(66, 66, 66)" stroke-width="1px" opacity="0.25"></line><line x1="0" y1="48.272727272727266" x2="278.4375" y2="48.272727272727266" fill="rgb(0, 0, 0)" stroke="rgb(66, 66, 66)" stroke-width="1px" opacity="0.25"></line><line x1="0" y1="32.181818181818194" x2="278.4375" y2="32.181818181818194" fill="rgb(0, 0, 0)" stroke="rgb(66, 66, 66)" stroke-width="1px" opacity="0.25"></line><line x1="0" y1="16.090909090909076" x2="278.4375" y2="16.090909090909076" fill="rgb(0, 0, 0)" stroke="rgb(66, 66, 66)" stroke-width="1px" opacity="0.25"></line><line x1="0" y1="0" x2="278.4375" y2="0" fill="rgb(0, 0, 0)" stroke="rgb(66, 66, 66)" stroke-width="1px" opacity="0.25"></line></g></g></g><g><g><line x1="0" y1="177" x2="278.4375" y2="177" fill="rgb(0, 0, 0)" stroke="rgb(153, 153, 153)" stroke-width="1.5px"></line></g></g><g><g><line x1="23.203125" y1="0" x2="23.203125" y2="177" fill="rgb(0, 0, 0)" stroke="rgb(153, 153, 153)" stroke-width="1.5px"></line></g></g><g><g><g><g><g><path stroke="rgb(0, 119, 187)" stroke-width="2px" d="M23.203125,23.621092883023355L27.84375,63.64788881486113L32.484375,79.03646621727323L37.125,92.32611945813352L41.765625,105.28506247694891L46.40625,114.1610986496205L51.04687499999999,119.89045512793571L55.6875,123.65191689356763L60.328125,127.4376179502382L64.96875,132.26164774436594L69.609375,134.25736183478284L74.25,136.1222397109746L78.890625,137.1886295371917L83.53125,139.47827633753965L88.171875,141.89976939110937L92.8125,142.67366642812775L97.453125,144.4916435886291L102.09374999999999,145.40454057497018L106.73437500000001,146.1210479948972L111.375,145.81477303461742L116.015625,146.23703335547472L120.65625,147.917284267751L125.296875,147.8329935961671L129.9375,149.7119819355211L134.578125,150.52430479190363L139.21875,151.77242391771694L143.85937500000003,152.05794164621642L148.5,152.23315381568824L153.140625,152.63707024427973L157.78125,154.00428664503443L162.421875,154.56000879494778L167.0625,155.02958804881024L171.703125,155.5021240727205L176.34375,155.46746631757617L180.984375,155.6273440936043L185.625,156.76203867730243L190.265625,157.89777965051093L194.90625,158.13251745338496L199.546875,159.0467861723681L204.18749999999997,159.80973480246612L208.828125,159.99166833682668L213.46875000000003,160.73784093121338L218.109375,160.42937332037545L222.75,161.33769458422975L227.390625,161.59937650638733L232.03125,162.26962331460373L236.671875,162.77319715365815L241.3125,163.28619078220316L245.953125,163.80367776029502L250.59375,164.05962789121006" style="fill: none;" fill="none"></path></g><g><path stroke="rgb(187, 187, 187)" stroke-width="2px" d="M23.203125,6.147606749426236L27.84375,20.28861663287337L32.484375,14.754314799200406L37.125,37.45426670800554L41.765625,43.97008577653391L46.40625,51.74806633540045L51.04687499999999,48.96375310644986L55.6875,58.021419373903676L60.328125,66.12749344506547L64.96875,73.46982644830852L69.609375,71.9957366897599L74.25,72.58132845597031L78.890625,68.68618412634852L83.53125,76.10096127116746L88.171875,83.85064750248691L92.8125,83.71686408075877L97.453125,77.56955113721867L102.09374999999999,79.60501334045308L106.73437500000001,90.16620193497445L111.375,97.07032317977117L116.015625,97.89334806270892L120.65625,99.94806251360237L125.296875,96.17544646032616L129.9375,99.33671923136875L134.578125,106.05674795523723L139.21875,104.37101919463224L143.85937500000003,111.84260635186396L148.5,111.60796798190611L153.140625,110.29418037705942L157.78125,114.72021530917887L162.421875,120.44603947314005L167.0625,112.90479846716275L171.703125,114.09446868116684L176.34375,119.67441103277089L180.984375,124.41325152988132L185.625,119.5460474469296L190.265625,120.21406499255528L194.90625,118.53405056432503L199.546875,126.00516645482628L204.18749999999997,122.76813535260405L208.828125,126.83451271092973L213.46875000000003,133.26271922227116L218.109375,132.55301449050503L222.75,127.53191431311464L227.390625,133.8060919088961L232.03125,129.17305644272508L236.671875,132.14044236193382L241.3125,126.01608577237576L245.953125,126.57217093930848L250.59375,128.3395439615025" style="fill: none;" fill="none"></path></g><g><path stroke="rgb(238, 51, 119)" stroke-width="2px" d="M23.203125,-19.496080268513055L27.84375,13.732924797318196L32.484375,43.96105599403381L37.125,60.58434221961282L41.765625,63.19652769782327L46.40625,71.59968273773855L51.04687499999999,81.69123605497411L55.6875,86.25517133212983L60.328125,93.66863014256481L64.96875,98.91584757950044L69.609375,102.47141155944801L74.25,106.77055875452368L78.890625,114.09050917897714L83.53125,119.38880621313531L88.171875,122.24863514475425L92.8125,123.63291155834312L97.453125,124.15705650813904L102.09374999999999,126.47591459216308L106.73437500000001,127.73494498396566L111.375,130.40361325762873L116.015625,132.20222610545855L120.65625,132.36398925444874L125.296875,132.33611414561952L129.9375,134.49129873650432L134.578125,135.68961376339988L139.21875,138.64206161811927L143.85937500000003,140.08624281720398L148.5,140.02256356182943L153.140625,141.3599130014815L157.78125,140.46793073762836L162.421875,141.59467816104726L167.0625,142.30557684797643L171.703125,142.0129131558985L176.34375,142.15470031612654L180.984375,144.502131319746L185.625,146.96339609844415L190.265625,148.65840029970693L194.90625,147.66332605032161L199.546875,148.5981252675626L204.18749999999997,150.1016194709296L208.828125,151.93090297302012L213.46875000000003,151.85973357283908L218.109375,151.94485521253864L222.75,152.9789128063331L227.390625,153.5331371748439L232.03125,154.94529911520766L236.671875,155.26134396912002L241.3125,155.75632720927615L245.953125,156.1588726843588L250.59375,157.07098313424225" style="fill: none;" fill="none"></path></g><g><path stroke="rgb(0, 153, 136)" stroke-width="2px" d="M23.203125,19.954972183162525L27.84375,58.25563663515177L32.484375,75.61772469692416L37.125,90.84313801472838L41.765625,103.19680780425799L46.40625,111.6186285701407L51.04687499999999,119.96145519093692L55.6875,124.59806394019229L60.328125,126.23220068823399L64.96875,128.83768826833537L69.609375,131.2474295118578L74.25,133.67512464043978L78.890625,135.5040661795041L83.53125,138.95957235492983L88.171875,139.95519667265486L92.8125,140.6433239346972L97.453125,140.3009921124925L102.09374999999999,141.77890331417427L106.73437500000001,142.47014272003753L111.375,143.60007690225325L116.015625,144.23238053179136L120.65625,145.05496627200515L125.296875,146.0442414266215L129.9375,146.41523384767007L134.578125,147.4570157194441L139.21875,148.5071026432137L143.85937500000003,150.56544196242223L148.5,150.00104574839688L153.140625,150.94954144427368L157.78125,152.14440675452371L162.421875,152.5430269392202L167.0625,152.8046690797786L171.703125,153.0715839368609L176.34375,153.6369321468647L180.984375,154.24473575472763L185.625,154.83857734284095L190.265625,154.8905398106688L194.90625,155.56936960122258L199.546875,156.63155392420484L204.18749999999997,157.01220786536953L208.828125,157.0444868127358L213.46875000000003,157.8812733945337L218.109375,158.7220916693431L222.75,159.08360276064298L227.390625,159.6250371876997L232.03125,159.9760964163102L236.671875,160.20262729524453L241.3125,160.19658607115244L245.953125,160.72402476759518L250.59375,160.991616453483" style="fill: none;" fill="none"></path></g></g></g></g><g opacity="0.2"><g><g><g><path stroke="rgb(0, 119, 187)" stroke-width="2px" d="M23.203125,23.621092883023355L27.84375,83.66128678078L32.484375,90.57789926908232L37.125,103.95456604388626L41.765625,117.43407155708834L46.40625,122.7597586918961L51.04687499999999,125.53029041127726L55.6875,127.38399223915555L60.328125,131.20853111215612L64.96875,137.07625560530207L69.609375,136.2511269856583L74.25,137.9862070022659L78.890625,138.25475901433012L83.53125,141.76764363998717L88.171875,144.3211146484722L92.8125,143.44753984768283L97.453125,146.30959300900048L102.09374999999999,146.31743059645999L106.73437500000001,146.83755268156528L111.375,145.50849865851077L116.015625,146.65929327363318L120.65625,149.5975343788212L125.296875,147.7487029446797L129.9375,151.59097005088222L134.578125,151.3366275998679L139.21875,153.02054300633344L143.85937500000003,152.34345937046137L148.5,152.40836598385465L153.140625,153.04098667136648L157.78125,155.37150304324248L162.421875,155.1157309443436L167.0625,155.49916730245405L171.703125,155.97466009652072L176.34375,155.4328085624359L180.984375,155.78722186962312L185.625,157.89673326096752L190.265625,159.03352062370288L194.90625,158.36725525625727L199.546875,159.96105489134789L204.18749999999997,160.5726834325628L208.828125,160.17360187118703L213.46875000000003,161.48401352559978L218.109375,160.1209057095376L222.75,162.24601584808394L227.390625,161.86105842854488L232.03125,162.93987012282014L236.671875,163.27677099271253L241.3125,163.79918441074815L245.953125,164.32116473838687L250.59375,164.3155780221251" style="fill: none;" fill="none"></path></g><g><path stroke="rgb(187, 187, 187)" stroke-width="2px" d="M23.203125,6.147606749426236L27.84375,27.35912157459692L32.484375,10.603588423945684L37.125,57.31672462821007L41.765625,50.078666153279215L46.40625,59.282985001802444L51.04687499999999,46.22294477170165L55.6875,67.00832262364301L60.328125,74.20190316438675L64.96875,80.79781895740464L69.609375,70.52308647199109L74.25,73.16663428870115L78.890625,64.79199075969782L83.53125,83.51483329182322L88.171875,91.59986073049633L92.8125,83.58308474177663L97.453125,71.4223319942301L102.09374999999999,81.64046001434326L106.73437500000001,100.7273502417586L111.375,103.97443125600165L116.015625,98.71637216074899L120.65625,102.0027759847316L125.296875,92.4028313065117L129.9375,102.49799162555824L134.578125,112.77677627856082L139.21875,102.68529048426583L143.85937500000003,119.31419339776039L148.5,111.37332961369644L153.140625,108.98039277710699L157.78125,119.14625023305416L162.421875,126.17186363176867L167.0625,105.36355746469714L171.703125,115.2841388948939L176.34375,125.25435338372534L180.984375,129.15209202671593L185.625,114.67884336411953L190.265625,120.88208253817126L194.90625,116.854036136107L199.546875,133.47628234530038L204.18749999999997,119.5311042503877L208.828125,130.90089006925172L213.46875000000003,139.69092573360965L218.109375,131.84330975873903L222.75,122.51081413572484L227.390625,140.08026950467718L232.03125,124.54002097655426L236.671875,135.1078282811425L241.3125,119.89172918281771L245.953125,127.1282561062412L250.59375,130.10691698369652" style="fill: none;" fill="none"></path></g><g><path stroke="rgb(238, 51, 119)" stroke-width="2px" d="M23.203125,-19.496080268513055L27.84375,30.34742733023383L32.484375,66.63215439157054L37.125,75.12971766699444L41.765625,65.64545158364557L46.40625,79.74023918265645L51.04687499999999,91.62510885162786L55.6875,90.78345086493276L60.328125,101.05313012952155L64.96875,104.15281654487957L69.609375,106.02350330894643L74.25,111.06760675663298L78.890625,121.40867250615901L83.53125,124.6864564825188L88.171875,125.1082895262675L92.8125,125.01714572716843L97.453125,124.68119346011768L102.09374999999999,128.79475498470396L106.73437500000001,128.99397057294846L111.375,133.07227644121105L116.015625,134.0008372379975L120.65625,132.52575232630426L125.296875,132.30823904343626L129.9375,136.64648307047108L134.578125,136.88792871887034L139.21875,141.59450938484886L143.85937500000003,141.53042399476874L148.5,139.95888430692932L153.140625,142.6972624361515L157.78125,139.57594847543672L162.421875,142.72142558341676L167.0625,143.01647553457454L171.703125,141.72024946388873L176.34375,142.29648747633803L180.984375,146.84956232322887L185.625,149.42466087707064L190.265625,150.35340450094506L194.90625,146.6682518009435L199.546875,149.53292448480022L204.18749999999997,151.60511367429388L208.828125,153.76018647510898L213.46875000000003,151.78856417265806L218.109375,152.02997685223818L222.75,154.0129704001275L227.390625,154.08736154335466L232.03125,156.35746105557138L236.671875,155.57738882303238L241.3125,156.25131044943225L245.953125,156.5614181594415L250.59375,157.9830935841257" style="fill: none;" fill="none"></path></g><g><path stroke="rgb(0, 153, 136)" stroke-width="2px" d="M23.203125,19.954972183162525L27.84375,77.40596886114642L32.484375,88.63929074325345L37.125,104.16537466780707L41.765625,114.778373231942L46.40625,119.77726743708958L51.04687499999999,128.17392514578322L55.6875,129.1984491835941L60.328125,127.85995408960365L64.96875,131.43808700550687L69.609375,133.6548174924471L74.25,136.10163437100974L78.890625,137.33256119963798L83.53125,142.4146567156369L88.171875,140.95076022229412L92.8125,141.33143019676208L97.453125,139.95866551385686L102.09374999999999,143.25680324028838L106.73437500000001,143.1613794890317L111.375,144.73000892929056L116.015625,144.86468355831775L120.65625,145.87755161997947L125.296875,147.0335163453763L129.9375,146.7862262244929L134.578125,148.49879752912304L139.21875,149.55718953568828L143.85937500000003,152.6237812509591L148.5,149.4366495385766L153.140625,151.89803713661703L157.78125,153.3392720625482L162.421875,152.9416471235454L167.0625,153.0663112202151L171.703125,153.33849879388106L176.34375,154.20228035680273L180.984375,154.8525393625552L185.625,155.43241893093693L190.265625,154.9425022784959L194.90625,156.24819939177144L199.546875,157.69373824718323L204.18749999999997,157.39286180653355L208.828125,157.07676576010206L213.46875000000003,158.7180599763312L218.109375,159.5629099441523L222.75,159.4451138519428L227.390625,160.16647161475638L232.03125,160.32715564492074L236.671875,160.4291581741788L241.3125,160.19054484706032L245.953125,161.25146346403793L250.59375,161.2592081393708" style="fill: none;" fill="none"></path></g></g></g></g></g></g><g transform="translate(51, 177)" clip-path="url(#clip_1)"><clipPath id="clip_1"><rect width="278" height="23"></rect></clipPath><g><g><line x1="0" y1="0" x2="0" y2="5" style="visibility: inherit;" fill="rgb(0, 0, 0)" stroke="rgb(204, 204, 204)" stroke-width="1px"></line><line x1="23.203125" y1="0" x2="23.203125" y2="5" style="visibility: inherit;" fill="rgb(0, 0, 0)" stroke="rgb(204, 204, 204)" stroke-width="1px"></line><line x1="46.40625" y1="0" x2="46.40625" y2="5" style="visibility: inherit;" fill="rgb(0, 0, 0)" stroke="rgb(204, 204, 204)" stroke-width="1px"></line><line x1="69.609375" y1="0" x2="69.609375" y2="5" style="visibility: inherit;" fill="rgb(0, 0, 0)" stroke="rgb(204, 204, 204)" stroke-width="1px"></line><line x1="92.8125" y1="0" x2="92.8125" y2="5" style="visibility: inherit;" fill="rgb(0, 0, 0)" stroke="rgb(204, 204, 204)" stroke-width="1px"></line><line x1="116.015625" y1="0" x2="116.015625" y2="5" style="visibility: inherit;" fill="rgb(0, 0, 0)" stroke="rgb(204, 204, 204)" stroke-width="1px"></line><line x1="139.21875" y1="0" x2="139.21875" y2="5" style="visibility: inherit;" fill="rgb(0, 0, 0)" stroke="rgb(204, 204, 204)" stroke-width="1px"></line><line x1="162.421875" y1="0" x2="162.421875" y2="5" style="visibility: inherit;" fill="rgb(0, 0, 0)" stroke="rgb(204, 204, 204)" stroke-width="1px"></line><line x1="185.625" y1="0" x2="185.625" y2="5" style="visibility: inherit;" fill="rgb(0, 0, 0)" stroke="rgb(204, 204, 204)" stroke-width="1px"></line><line x1="208.828125" y1="0" x2="208.828125" y2="5" style="visibility: inherit;" fill="rgb(0, 0, 0)" stroke="rgb(204, 204, 204)" stroke-width="1px"></line><line x1="232.03125" y1="0" x2="232.03125" y2="5" style="visibility: inherit;" fill="rgb(0, 0, 0)" stroke="rgb(204, 204, 204)" stroke-width="1px"></line><line x1="255.234375" y1="0" x2="255.234375" y2="5" style="visibility: inherit;" fill="rgb(0, 0, 0)" stroke="rgb(204, 204, 204)" stroke-width="1px"></line><line x1="278.4375" y1="0" x2="278.4375" y2="5" style="visibility: inherit;" fill="rgb(0, 0, 0)" stroke="rgb(204, 204, 204)" stroke-width="1px"></line></g><g transform="translate(0, 8)"><text x="0" y="0" dx="0em" dy="0.95em" style="text-anchor: middle; visibility: hidden; font-family: Roboto, sans-serif; font-size: 12px; font-weight: 200;" fill="rgb(33, 33, 33)" stroke="none" stroke-width="1px">-5</text><text x="23.203125" y="0" dx="0em" dy="0.95em" style="text-anchor: middle; visibility: inherit; font-family: Roboto, sans-serif; font-size: 12px; font-weight: 200;" fill="rgb(33, 33, 33)" stroke="none" stroke-width="1px">0</text><text x="46.40625" y="0" dx="0em" dy="0.95em" style="text-anchor: middle; visibility: inherit; font-family: Roboto, sans-serif; font-size: 12px; font-weight: 200;" fill="rgb(33, 33, 33)" stroke="none" stroke-width="1px">5</text><text x="69.609375" y="0" dx="0em" dy="0.95em" style="text-anchor: middle; visibility: inherit; font-family: Roboto, sans-serif; font-size: 12px; font-weight: 200;" fill="rgb(33, 33, 33)" stroke="none" stroke-width="1px">10</text><text x="92.8125" y="0" dx="0em" dy="0.95em" style="text-anchor: middle; visibility: inherit; font-family: Roboto, sans-serif; font-size: 12px; font-weight: 200;" fill="rgb(33, 33, 33)" stroke="none" stroke-width="1px">15</text><text x="116.015625" y="0" dx="0em" dy="0.95em" style="text-anchor: middle; visibility: inherit; font-family: Roboto, sans-serif; font-size: 12px; font-weight: 200;" fill="rgb(33, 33, 33)" stroke="none" stroke-width="1px">20</text><text x="139.21875" y="0" dx="0em" dy="0.95em" style="text-anchor: middle; visibility: inherit; font-family: Roboto, sans-serif; font-size: 12px; font-weight: 200;" fill="rgb(33, 33, 33)" stroke="none" stroke-width="1px">25</text><text x="162.421875" y="0" dx="0em" dy="0.95em" style="text-anchor: middle; visibility: inherit; font-family: Roboto, sans-serif; font-size: 12px; font-weight: 200;" fill="rgb(33, 33, 33)" stroke="none" stroke-width="1px">30</text><text x="185.625" y="0" dx="0em" dy="0.95em" style="text-anchor: middle; visibility: inherit; font-family: Roboto, sans-serif; font-size: 12px; font-weight: 200;" fill="rgb(33, 33, 33)" stroke="none" stroke-width="1px">35</text><text x="208.828125" y="0" dx="0em" dy="0.95em" style="text-anchor: middle; visibility: inherit; font-family: Roboto, sans-serif; font-size: 12px; font-weight: 200;" fill="rgb(33, 33, 33)" stroke="none" stroke-width="1px">40</text><text x="232.03125" y="0" dx="0em" dy="0.95em" style="text-anchor: middle; visibility: inherit; font-family: Roboto, sans-serif; font-size: 12px; font-weight: 200;" fill="rgb(33, 33, 33)" stroke="none" stroke-width="1px">45</text><text x="255.234375" y="0" dx="0em" dy="0.95em" style="text-anchor: middle; visibility: inherit; font-family: Roboto, sans-serif; font-size: 12px; font-weight: 200;" fill="rgb(33, 33, 33)" stroke="none" stroke-width="1px">50</text><text x="278.4375" y="0" dx="0em" dy="0.95em" style="text-anchor: middle; visibility: hidden; font-family: Roboto, sans-serif; font-size: 12px; font-weight: 200;" fill="rgb(33, 33, 33)" stroke="none" stroke-width="1px">55</text></g><line x1="0" y1="0" x2="278.4375" y2="0" fill="rgb(0, 0, 0)" stroke="rgb(204, 204, 204)" stroke-width="1px"></line></g></g></g></g></svg>